<?xml version="1.0" encoding="utf-8"?>
<!-- Generator: Adobe Illustrator 24.1.0, SVG Export Plug-In . SVG Version: 6.00 Build 0)  -->
<svg version="1.1" xmlns="http://www.w3.org/2000/svg" xmlns:xlink="http://www.w3.org/1999/xlink" x="0px" y="0px"
	 viewBox="0 0 201.79 90.95" style="enable-background:new 0 0 201.79 90.95;" xml:space="preserve">
<style type="text/css">
	.st0{fill:#BBD64D;stroke:#8DC63F;stroke-miterlimit:10;}
	.st1{fill:#E6EB97;}
</style>
<g id="Layer_1">
	<g>
		<path class="st0" d="M34.76,76.38c-3.64,1.55-6.83,2.02-9.58,1.4c-2.75-0.62-5.15-2.11-7.21-4.49s-3.86-5.36-5.39-8.95L5.03,46.67
			c-1.59-3.72-2.49-7.15-2.7-10.29c-0.21-3.13,0.52-5.94,2.2-8.43c1.68-2.48,4.51-4.57,8.5-6.27c3.9-1.66,7.24-2.32,10.03-1.97
			c2.79,0.35,5.14,1.47,7.08,3.36c1.93,1.89,3.55,4.37,4.87,7.45v0c0.8,1.87-0.07,4.02-1.94,4.82l-4.61,1.97
			c-1.87,0.8-4.02-0.07-4.82-1.94l-0.39-0.91c-0.48-1.13-1-2.13-1.56-3.02c-0.56-0.89-1.23-1.51-2.02-1.86
			c-0.79-0.35-1.79-0.27-3,0.25c-1.26,0.54-2.02,1.26-2.3,2.17c-0.28,0.91-0.28,1.9,0,2.96c0.27,1.06,0.64,2.13,1.1,3.22l10.4,24.37
			c0.5,1.17,1.08,2.21,1.76,3.13c0.67,0.92,1.46,1.56,2.35,1.91c0.9,0.36,1.93,0.29,3.1-0.21c1.21-0.52,2.01-1.24,2.38-2.17
			c0.37-0.93,0.47-1.97,0.28-3.12c-0.18-1.15-0.53-2.31-1.02-3.48l-2.63-6.17L30.7,53c-1.87,0.8-4.03-0.07-4.82-1.94L25.85,51
			c-0.8-1.87,0.07-4.02,1.94-4.82l4.95-2.11c3.8-1.62,8.19,0.14,9.8,3.94l7.27,17.04c0.8,1.87-0.07,4.02-1.94,4.82l-1.38,0.59
			c-1.67,0.71-3.62,0.1-4.57-1.45l-0.85-1.38c-0.07,1.77-0.56,3.43-1.49,4.97C38.67,74.14,37.06,75.4,34.76,76.38z"/>
		<path class="st0" d="M43.89,17.38L43.89,17.38c-0.54-2.14,0.75-4.31,2.89-4.85l3.49-0.88c2.14-0.54,4.31,0.76,4.85,2.89l0,0
			c0.54,2.14-0.76,4.31-2.89,4.85l-3.49,0.88C46.6,20.82,44.43,19.52,43.89,17.38z M55.48,63l-7.71-30.51
			c-0.63-2.51,0.89-5.05,3.39-5.68l2.09-0.53c2.51-0.63,5.05,0.89,5.68,3.39l7.71,30.51c0.63,2.51-0.89,5.05-3.39,5.68l-2.09,0.53
			C58.66,67.02,56.12,65.5,55.48,63z"/>
		<path class="st0" d="M72.58,59.73l-3.64-33.66c-0.21-1.92,1.18-3.64,3.09-3.84l4.51-0.49c1.92-0.21,3.64,1.18,3.84,3.09l0.07,0.61
			c1.34-1.66,2.77-3,4.29-4.02c1.52-1.02,3.18-1.62,4.96-1.82c1.69-0.18,3.12,0.08,4.31,0.78c1.19,0.7,2.14,1.73,2.86,3.1
			c0.72,1.37,1.17,2.96,1.37,4.79l3.07,28.35c0.21,1.92-1.18,3.64-3.09,3.84l-4.44,0.48c-1.92,0.21-3.64-1.18-3.84-3.09l-2.89-26.73
			c-0.11-0.98-0.35-1.71-0.74-2.19c-0.38-0.48-1.02-0.67-1.91-0.57c-0.47,0.05-1,0.24-1.61,0.56c-0.6,0.33-1.21,0.76-1.81,1.3
			l3.06,28.28c0.21,1.92-1.18,3.64-3.09,3.84l-4.51,0.49C74.5,63.03,72.78,61.64,72.58,59.73z"/>
		<path class="st0" d="M107.1,55.78l0.9-31.38c0.08-2.6,2.25-4.65,4.85-4.58l2.08,0.06c2.6,0.07,4.65,2.25,4.58,4.85l-0.9,31.38
			c-0.08,2.6-2.25,4.65-4.85,4.58l-2.08-0.06C109.07,60.55,107.02,58.38,107.1,55.78z M107.51,8.77l0-0.02
			c0.06-2.2,1.9-3.93,4.1-3.87l3.62,0.1c2.2,0.06,3.93,1.9,3.87,4.1l0,0.02c-0.06,2.2-1.9,3.93-4.1,3.87l-3.62-0.1
			C109.18,12.81,107.45,10.97,107.51,8.77z"/>
		<path class="st0" d="M142.34,59.75l12.22-48.21c0.51-2,2.55-3.22,4.55-2.71l5,1.27c2,0.51,3.22,2.55,2.71,4.55L155.77,58.2
			l9.11,2.31c2,0.51,3.22,2.55,2.71,4.55l-0.26,1.03c-0.51,2-2.55,3.22-4.55,2.71l-17.73-4.5
			C143.04,63.79,141.83,61.75,142.34,59.75z"/>
		<path class="st0" d="M170.19,67.58l12.21-31.01c0.76-1.93,2.94-2.87,4.86-2.12l3.73,1.47c1.93,0.76,2.87,2.94,2.12,4.86
			L180.91,71.8c-0.76,1.93-2.94,2.87-4.86,2.12l-3.73-1.47C170.38,71.69,169.43,69.51,170.19,67.58z M187.63,23.1l0.16-0.41
			c0.76-1.94,2.95-2.89,4.89-2.13l3.76,1.48c1.94,0.76,2.89,2.95,2.13,4.89l-0.16,0.41c-0.76,1.94-2.95,2.89-4.89,2.13l-3.76-1.48
			C187.82,27.23,186.87,25.04,187.63,23.1z"/>
	</g>
</g>
<g id="Layer_2">
	<path class="st1" d="M20.54,22.79c-0.05-0.2,1.44-1.1,3.21-1c2.43,0.14,3.94,2.09,4.21,2.44c0.6,0.78,1.05,1.75,0.89,1.88
		c-0.21,0.17-1.16-1.06-3.21-2.21c-0.66-0.37-1.21-0.67-1.99-0.89C21.86,22.54,20.58,22.98,20.54,22.79z"/>
	<path class="st1" d="M87.38,22.46c-0.08-0.26,1.78-1.6,3.94-1.39c0.39,0.04,1.83,0.23,2.94,1.39c1.11,1.17,1.4,2.81,1.16,2.94
		c-0.22,0.12-0.72-1.14-2.32-2.09c-1-0.59-1.94-0.77-2.4-0.85C88.72,22.11,87.45,22.68,87.38,22.46z"/>
	<path class="st1" d="M161.75,12.18c0.04-0.24,1.37-0.5,2.32,0.15c0.79,0.55,0.95,1.47,1.01,1.78c0.28,1.57-0.67,2.99-0.85,2.94
		c-0.16-0.04,0.36-1.19-0.15-2.55c-0.26-0.69-0.68-1.14-0.77-1.24C162.52,12.45,161.72,12.37,161.75,12.18z"/>
	<path class="st1" d="M33.79,45.97c-0.05-0.18,1.24-0.99,2.71-0.88c2.24,0.17,3.68,2.4,3.59,2.52c-0.08,0.09-1.09-1.19-3.02-1.64
		C35.25,45.56,33.83,46.15,33.79,45.97z"/>
	<path class="st1" d="M53.67,27.98c-0.01-0.18,1.27-0.73,2.39-0.25c1.08,0.46,1.58,1.71,1.45,1.82c-0.1,0.09-0.56-0.59-1.64-1.07
		C54.64,27.94,53.68,28.13,53.67,27.98z"/>
	<path class="st1" d="M115.2,21.82c0.07-0.17,1.45-0.13,2.26,0.75c0.8,0.87,0.75,2.21,0.57,2.26c-0.15,0.05-0.33-0.87-1.26-1.82
		C115.93,22.15,115.15,21.95,115.2,21.82z"/>
	<path class="st1" d="M50.96,12.76c0.09-0.23,1.46,0.14,1.57,0.19c0.1,0.04,0.19,0.1,0.19,0.1s0.01,0.01,0.02,0.01
		c0.11,0.06,1.27,1.14,1.12,1.34C53.64,14.68,50.83,13.1,50.96,12.76z"/>
	<path class="st1" d="M115.26,6.15c0.08-0.14,1.11,0.08,1.82,0.82c0.68,0.7,0.89,1.69,0.75,1.76c-0.09,0.05-0.33-0.36-1.07-1.13
		C115.79,6.58,115.2,6.26,115.26,6.15z"/>
	<path class="st1" d="M194.5,22.42c0.1-0.21,1.31,0.03,2.19,0.73c0.26,0.21,0.67,0.6,0.6,0.73c-0.09,0.16-0.83-0.1-1.32-0.33
		C195.26,23.22,194.41,22.61,194.5,22.42z"/>
	<path class="st1" d="M189.53,36.66c0.08-0.18,1.08-0.03,1.72,0.46c0.01,0.01,0.04,0.03,0.07,0.06c0.46,0.39,0.82,0.95,0.72,1.07
		c-0.13,0.15-1.02-0.42-1.39-0.66C190.1,37.23,189.47,36.82,189.53,36.66z"/>
	<path class="st1" d="M75.62,23.37c0.04-0.34,1.36-0.66,2.24-0.19c0.02,0.01,0.06,0.03,0.12,0.07c0.7,0.44,1.13,1.27,0.95,1.49
		c-0.12,0.14-0.57-0.03-1.46-0.39C76.22,23.84,75.59,23.59,75.62,23.37z"/>
</g>
</svg>
